<?xml version="1.0" encoding="utf-8"?>
<!-- Generator: Adobe Illustrator 27.2.0, SVG Export Plug-In . SVG Version: 6.00 Build 0)  -->
<svg version="1.1" id="logo_x5F_7" xmlns="http://www.w3.org/2000/svg" xmlns:xlink="http://www.w3.org/1999/xlink" x="0px" y="0px"
	 viewBox="0 0 1226 309" style="enable-background:new 0 0 1226 309;" xml:space="preserve">
<style type="text/css">
	.st0{fill:#FF003A;}
	.st1{fill:#FF003A;stroke:#FF003A;stroke-width:3;stroke-miterlimit:10;}
</style>
<g id="O">
	<circle class="st0" cx="1116" cy="165" r="87.5"/>
	<path class="st0" d="M1116,79c47.42,0,86,38.58,86,86s-38.58,86-86,86s-86-38.58-86-86S1068.58,79,1116,79 M1116,76
		c-49.15,0-89,39.85-89,89s39.85,89,89,89s89-39.85,89-89S1165.15,76,1116,76L1116,76z"/>
</g>
<path id="M" class="st1" d="M788.36,170.53l16.26,16.26l16.26-16.26L933.23,58.19v226.25h-257l0-226.04L788.36,170.53z M653.23,4.43
	l0,303h303v-303l-1.77,0L804.62,154.27L654.79,4.43H653.23L653.23,4.43z"/>
<path id="I" class="st1" d="M327.15,4.18v303h303v-303H327.15z M457.08,134.11c-13.08,13.08-13.08,34.29,0,47.38
	c9.41,9.41,23.02,12.05,34.79,7.92l94.77,94.77l-236.49,0v-257h257l0,236.49l-94.77-94.77c4.13-11.77,1.48-25.39-7.92-34.79
	C491.37,121.03,470.16,121.03,457.08,134.11z"/>
<path id="T" class="st1" d="M209.14,3.72L2.67,210.2l0,96.53l303,0l0-303L209.14,3.72z M25.67,283.72l0-64l85.62-85.62
	l119.87,119.87l20.51-20.51L131.8,113.6l86.87-86.87l64,0l0,257L25.67,283.72z"/>
</svg>
